<?xml version="1.0" encoding="UTF-8" standalone="no"?><svg xmlns="http://www.w3.org/2000/svg" xmlns:xlink="http://www.w3.org/1999/xlink" contentStyleType="text/css" height="761px" preserveAspectRatio="none" style="width:756px;height:761px;background:#FFFFFF;" version="1.1" viewBox="0 0 756 761" width="756px" zoomAndPan="magnify"><defs/><g><!--MD5=[0dda532739e173399a41cadaf4b29f7b]
cluster Aplikace-Úřední_desky--><g id="cluster_Aplikace-Úřední_desky"><path d="M174.5,6 L354.5,6 A3.75,3.75 0 0 1 357,8.5 L364,28.2969 L746.5,28.2969 A2.5,2.5 0 0 1 749,30.7969 L749,751.5 A2.5,2.5 0 0 1 746.5,754 L174.5,754 A2.5,2.5 0 0 1 172,751.5 L172,8.5 A2.5,2.5 0 0 1 174.5,6 " style="stroke:#000000;stroke-width:1.5;fill:none;"/><line style="stroke:#000000;stroke-width:1.5;fill:none;" x1="172" x2="364" y1="28.2969" y2="28.2969"/><text fill="#000000" font-family="sans-serif" font-size="14" font-weight="bold" lengthAdjust="spacing" textLength="179" x="176" y="20.9951">Aplikace-Úřední_desky</text></g><g id="elem_prehled"><ellipse cx="460.6213" cy="477.9243" fill="#F1F1F1" rx="167.6213" ry="35.9243" style="stroke:#181818;stroke-width:0.5;"/><text fill="#000000" font-family="sans-serif" font-size="14" lengthAdjust="spacing" textLength="307" x="307.1213" y="480.7709">Přehled poskytování dat právními formami</text></g><g id="elem_zobrazeni"><ellipse cx="460.5963" cy="97.9193" fill="#F1F1F1" rx="272.5963" ry="56.9193" style="stroke:#181818;stroke-width:0.5;"/><text fill="#000000" font-family="sans-serif" font-size="14" lengthAdjust="spacing" textLength="521" x="200.0963" y="100.7659">Zobrazení aktuálních informací určité tématiky z konkrétní úřední desky</text></g><g id="elem_vyhledani"><ellipse cx="460.7094" cy="245.0419" fill="#F1F1F1" rx="263.2094" ry="55.0419" style="stroke:#181818;stroke-width:0.5;"/><text fill="#000000" font-family="sans-serif" font-size="14" lengthAdjust="spacing" textLength="502" x="209.7094" y="247.8886">Vyhledání úřední desky ze znalosti geografické polohy poskytovatele.</text></g><g id="elem_overeni"><ellipse cx="460.3886" cy="705.7777" fill="#F1F1F1" rx="146.8886" ry="31.7777" style="stroke:#181818;stroke-width:0.5;"/><text fill="#000000" font-family="sans-serif" font-size="14" lengthAdjust="spacing" textLength="260" x="328.3886" y="708.6244">Ověření korektního poskytování dat</text></g><g id="elem_zjisteniStavu"><ellipse cx="460.5481" cy="593.9096" fill="#F1F1F1" rx="210.0481" ry="44.4096" style="stroke:#181818;stroke-width:0.5;"/><text fill="#000000" font-family="sans-serif" font-size="14" lengthAdjust="spacing" textLength="394" x="263.5481" y="596.7563">Zjištění stavu poskytovaných dat v rámci právní formy.</text></g><g id="elem_zjisteniKvality"><ellipse cx="460.6213" cy="370.9243" fill="#F1F1F1" rx="167.6213" ry="35.9243" style="stroke:#181818;stroke-width:0.5;"/><text fill="#000000" font-family="sans-serif" font-size="14" lengthAdjust="spacing" textLength="307" x="307.1213" y="373.7709">Zjištění celkové kvality poskytovaných dat</text></g><!--MD5=[9c35c66068622dad62ecac52c54c307b]
entity V--><g id="elem_V"><ellipse cx="67" cy="215.5" fill="#F1F1F1" rx="8" ry="8" style="stroke:#181818;stroke-width:0.5;"/><path d="M67,223.5 L67,250.5 M54,231.5 L80,231.5 M67,250.5 L54,265.5 M67,250.5 L80,265.5 " fill="none" style="stroke:#181818;stroke-width:0.5;"/><text fill="#000000" font-family="sans-serif" font-size="14" lengthAdjust="spacing" textLength="70" x="32" y="279.9951">Veřejnost</text></g><!--MD5=[626ad08abde0879284d52f51a0eb42aa]
entity P--><g id="elem_P"><ellipse cx="67" cy="535.5" fill="#F1F1F1" rx="8" ry="8" style="stroke:#181818;stroke-width:0.5;"/><path d="M67,543.5 L67,570.5 M54,551.5 L80,551.5 M67,570.5 L54,585.5 M67,570.5 L80,585.5 " fill="none" style="stroke:#181818;stroke-width:0.5;"/><text fill="#000000" font-family="sans-serif" font-size="14" lengthAdjust="spacing" textLength="122" x="6" y="599.9951">Poskytovatel dat</text></g><!--MD5=[1d330b295f016d6727cd1dfcd8404564]
entity N--><g id="elem_N"><ellipse cx="67" cy="395.5" fill="#F1F1F1" rx="8" ry="8" style="stroke:#181818;stroke-width:0.5;"/><path d="M67,403.5 L67,430.5 M54,411.5 L80,411.5 M67,430.5 L54,445.5 M67,430.5 L80,445.5 " fill="none" style="stroke:#181818;stroke-width:0.5;"/><text fill="#000000" font-family="sans-serif" font-size="14" lengthAdjust="spacing" textLength="54" x="40" y="459.9951">Novinář</text></g><!--MD5=[bdebb991304ddd3ee216fd9f2086fe0b]
link V to prehled--><g id="link_V_prehled"><path d="M86.3858,283.415 C110.556,333.222 151.424,414.837 164,424 C200.021,450.243 244.921,464.983 288.759,472.975 " fill="none" id="V-to-prehled" style="stroke:#181818;stroke-width:1.0;"/><polygon fill="#181818" points="293.823,473.869,285.6562,468.3642,288.8993,472.9991,284.2643,476.2422,293.823,473.869" style="stroke:#181818;stroke-width:1.0;"/></g><!--MD5=[0c6e8270b4835bf69243ea1713992826]
link P to prehled--><g id="link_P_prehled"><path d="M128.005,542.827 C139.839,538.895 152.236,535.078 164,532 C213.632,519.013 268.753,508.034 317.817,499.436 " fill="none" id="P-to-prehled" style="stroke:#181818;stroke-width:1.0;"/><polygon fill="#181818" points="322.85,498.559,313.2968,496.1638,317.9243,499.4176,314.6705,504.045,322.85,498.559" style="stroke:#181818;stroke-width:1.0;"/></g><!--MD5=[6c188dc46d8e6aeb8bb2e6cbe039be87]
link N to prehled--><g id="link_N_prehled"><path d="M94.2953,428.56 C138.752,434.578 231.853,447.182 312.922,458.157 " fill="none" id="N-to-prehled" style="stroke:#181818;stroke-width:1.0;"/><polygon fill="#181818" points="318.244,458.877,309.8625,453.7049,313.2893,458.2057,308.7884,461.6325,318.244,458.877" style="stroke:#181818;stroke-width:1.0;"/></g><!--MD5=[09d48086b78cf58f0ac65bc93987d312]
link V to zobrazeni--><g id="link_V_zobrazeni"><path d="M102.1983,213.556 C119.592,199.042 141.729,182.697 164,172 C192.169,158.471 223.078,147.244 253.96,137.979 " fill="none" id="V-to-zobrazeni" style="stroke:#181818;stroke-width:1.0;"/><polygon fill="#181818" points="258.916,136.509,249.1501,135.2331,254.1224,137.9307,251.4248,142.9029,258.916,136.509" style="stroke:#181818;stroke-width:1.0;"/></g><!--MD5=[4873e46b1580d4fb8e62cc90cb3f6667]
link V to vyhledani--><g id="link_V_vyhledani"><path d="M102.0582,245 C124.577,245 156.427,245 191.937,245 " fill="none" id="V-to-vyhledani" style="stroke:#181818;stroke-width:1.0;"/><polygon fill="#181818" points="197.203,245,188.203,241,192.203,245,188.203,249,197.203,245" style="stroke:#181818;stroke-width:1.0;"/></g><!--MD5=[707bc3e29c5f78e3cb33bc1a5b98fc4e]
link P to vyhledani--><g id="link_P_vyhledani"><path d="M99.8667,526.76 C110.163,512.775 120.773,496.357 128,480 C157.982,412.138 112.11,370.025 164,317 C181.831,298.779 203.447,284.87 226.786,274.295 " fill="none" id="P-to-vyhledani" style="stroke:#181818;stroke-width:1.0;"/><polygon fill="#181818" points="231.476,272.224,221.6272,272.2017,226.9024,274.2443,224.8597,279.5195,231.476,272.224" style="stroke:#181818;stroke-width:1.0;"/></g><!--MD5=[cb88e98672ef7954c71068aadf69dfa0]
link N to vyhledani--><g id="link_N_vyhledani"><path d="M92.8085,386.864 C110.056,363.322 135.087,334.393 164,317 C189.343,301.755 217.741,289.734 246.645,280.256 " fill="none" id="N-to-vyhledani" style="stroke:#181818;stroke-width:1.0;"/><polygon fill="#181818" points="251.666,278.637,241.8728,277.5918,246.9072,280.1713,244.3277,285.2058,251.666,278.637" style="stroke:#181818;stroke-width:1.0;"/></g><!--MD5=[e2f85827d1fea0cf6c16deeb34470f49]
link P to overeni--><g id="link_P_overeni"><path d="M98.7698,603.409 C115.957,622.229 138.935,643.483 164,656 C209.342,678.6423 262.959,691.2929 311.991,698.2773 " fill="none" id="P-to-overeni" style="stroke:#181818;stroke-width:1.0;"/><polygon fill="#181818" points="317.026,698.977,308.6611,693.778,312.0734,698.2898,307.5617,701.7021,317.026,698.977" style="stroke:#181818;stroke-width:1.0;"/></g><!--MD5=[77db3b7a7cf1c92f4d0c38d14a6a2c7b]
link P to zjisteniStavu--><g id="link_P_zjisteniStavu"><path d="M128.314,569.468 C163.392,572.066 209.851,575.507 256.841,578.988 " fill="none" id="P-to-zjisteniStavu" style="stroke:#181818;stroke-width:1.0;"/><polygon fill="#181818" points="261.979,579.369,253.2983,574.7165,256.9926,579.0005,252.7087,582.6948,261.979,579.369" style="stroke:#181818;stroke-width:1.0;"/></g><!--MD5=[f7c1bd6b661b97f5011907423a522a12]
link N to zjisteniStavu--><g id="link_N_zjisteniStavu"><path d="M92.6975,463.095 C109.9,486.545 134.923,515.229 164,532 C195.832,550.36 232.389,563.314 268.696,572.446 " fill="none" id="N-to-zjisteniStavu" style="stroke:#181818;stroke-width:1.0;"/><polygon fill="#181818" points="273.585,573.653,265.8062,567.6122,268.7308,572.4544,263.8886,575.379,273.585,573.653" style="stroke:#181818;stroke-width:1.0;"/></g><!--MD5=[351d8987fd1ea5276a4cd167b4af595e]
link N to zjisteniKvality--><g id="link_N_zjisteniKvality"><path d="M94.2953,421.373 C138.385,415.292 230.32,402.611 310.914,391.495 " fill="none" id="N-to-zjisteniKvality" style="stroke:#181818;stroke-width:1.0;"/><polygon fill="#181818" points="319.175,390.355,310.8402,388.4761,311.6599,394.4198,319.175,390.355" style="stroke:#181818;stroke-width:1.0;"/></g><!--MD5=[f4b467bafcae22b24bc55605fb9b0a95]
@startuml
left to right direction 
actor "Veřejnost" as V
actor "Poskytovatel dat" as P
actor "Novinář" as N
 
package Aplikace-Úřední_desky { 
  usecase "Přehled poskytování dat právními formami" as prehled
  usecase "Zobrazení aktuálních informací určité tématiky z konkrétní úřední desky" as zobrazeni
  usecase "Vyhledání úřední desky ze znalosti geografické polohy poskytovatele." as vyhledani
  usecase "Ověření korektního poskytování dat " as overeni
  usecase "Zjištění stavu poskytovaných dat v rámci právní formy." as zjisteniStavu
  usecase "Zjištění celkové kvality poskytovaných dat" as zjisteniKvality
  
}

' NZP .> VP : include
' EZP .> VP : include

' ZSP .> FP : include
' ZAP .> FP : include

V - -> prehled
P - -> prehled
N - -> prehled

V - -> zobrazeni

V - -> vyhledani
P - -> vyhledani
N - -> vyhledani

P - -> overeni

P - -> zjisteniStavu
N - -> zjisteniStavu

N ->> zjisteniKvality
@enduml

@startuml
left to right direction 
actor "Veřejnost" as V
actor "Poskytovatel dat" as P
actor "Novinář" as N
 
package Aplikace-Úřední_desky { 
  usecase "Přehled poskytování dat právními formami" as prehled
  usecase "Zobrazení aktuálních informací určité tématiky z konkrétní úřední desky" as zobrazeni
  usecase "Vyhledání úřední desky ze znalosti geografické polohy poskytovatele." as vyhledani
  usecase "Ověření korektního poskytování dat " as overeni
  usecase "Zjištění stavu poskytovaných dat v rámci právní formy." as zjisteniStavu
  usecase "Zjištění celkové kvality poskytovaných dat" as zjisteniKvality
  
}



V - -> prehled
P - -> prehled
N - -> prehled

V - -> zobrazeni

V - -> vyhledani
P - -> vyhledani
N - -> vyhledani

P - -> overeni

P - -> zjisteniStavu
N - -> zjisteniStavu

N ->> zjisteniKvality
@enduml

PlantUML version 1.2022.7beta1(Unknown compile time)
(GPL source distribution)
Java Runtime: Java(TM) SE Runtime Environment
JVM: Java HotSpot(TM) 64-Bit Server VM
Default Encoding: UTF-8
Language: en
Country: US
--></g></svg>